<svg width="20" height="20" viewBox="0 0 20 20" fill="none" xmlns="http://www.w3.org/2000/svg">
<g clip-path="url(#clip0_23_10)">
<path d="M8.21674 15C8.10247 14.9996 7.98951 14.9758 7.88486 14.9299C7.7802 14.884 7.6861 14.8171 7.6084 14.7333L3.5584 10.425C3.40701 10.2636 3.32591 10.0488 3.33294 9.82764C3.33997 9.6065 3.43456 9.39721 3.5959 9.24582C3.75724 9.09443 3.97212 9.01332 4.19325 9.02036C4.41439 9.02739 4.62368 9.12198 4.77507 9.28332L8.20841 12.9417L15.2167 5.27499C15.2879 5.18642 15.3763 5.11333 15.4767 5.06021C15.5771 5.00708 15.6873 4.97504 15.8006 4.96605C15.9138 4.95707 16.0277 4.97132 16.1352 5.00795C16.2427 5.04457 16.3416 5.10279 16.4258 5.17902C16.51 5.25526 16.5777 5.34791 16.6248 5.45127C16.6719 5.55464 16.6974 5.66654 16.6997 5.7801C16.7019 5.89367 16.681 6.0065 16.638 6.11166C16.5951 6.21683 16.5312 6.31211 16.4501 6.39165L8.83341 14.725C8.75644 14.8103 8.66267 14.8787 8.55798 14.9261C8.45329 14.9734 8.33995 14.9986 8.22507 15H8.21674Z" fill="#1D3066"/>
</g>
<defs>
<clipPath id="clip0_23_10">
<rect width="20" height="20" fill="white"/>
</clipPath>
</defs>
</svg>
